<?xml version="1.0" encoding="UTF-8" standalone="no"?>
<!-- Generator: Adobe Illustrator 15.0.0, SVG Export Plug-In . SVG Version: 6.00 Build 0)  -->

<svg
   xmlns:dc="http://purl.org/dc/elements/1.1/"
   xmlns:cc="http://creativecommons.org/ns#"
   xmlns:rdf="http://www.w3.org/1999/02/22-rdf-syntax-ns#"
   xmlns:svg="http://www.w3.org/2000/svg"
   xmlns="http://www.w3.org/2000/svg"
   xmlns:sodipodi="http://sodipodi.sourceforge.net/DTD/sodipodi-0.dtd"
   xmlns:inkscape="http://www.inkscape.org/namespaces/inkscape"
   version="1.1"
   id="Ebene_1"
   x="0px"
   y="0px"
   width="184.81041"
   height="96.922943"
   viewBox="0 0 184.8104 96.922941"
   enable-background="new 0 0 595.275 841.89"
   xml:space="preserve"
   inkscape:version="0.48.2 r9819"
   sodipodi:docname="boa_logo.svg"><metadata
   id="metadata3239"><rdf:RDF><cc:Work
       rdf:about=""><dc:format>image/svg+xml</dc:format><dc:type
         rdf:resource="http://purl.org/dc/dcmitype/StillImage" /></cc:Work></rdf:RDF></metadata><defs
   id="defs3237" /><sodipodi:namedview
   pagecolor="#ffffff"
   bordercolor="#666666"
   borderopacity="1"
   objecttolerance="10"
   gridtolerance="10"
   guidetolerance="10"
   inkscape:pageopacity="0"
   inkscape:pageshadow="2"
   inkscape:window-width="1600"
   inkscape:window-height="846"
   id="namedview3235"
   showgrid="false"
   fit-margin-top="0"
   fit-margin-left="0"
   fit-margin-right="0"
   fit-margin-bottom="0"
   inkscape:zoom="1.1212866"
   inkscape:cx="-63.106573"
   inkscape:cy="50.309806"
   inkscape:window-x="0"
   inkscape:window-y="24"
   inkscape:window-maximized="1"
   inkscape:current-layer="Ebene_1" />
<g
   id="rdf_triple"
   transform="translate(-212.50601,-216.45806)">
</g>
<circle
   cx="245.94099"
   cy="255.662"
   r="32.402"
   id="circle3143"
   sodipodi:cx="245.94099"
   sodipodi:cy="255.662"
   sodipodi:rx="32.402"
   sodipodi:ry="32.402"
   style="fill:#ffffff"
   transform="translate(-212.50601,-216.45806)" />
<g
   id="g3145"
   transform="translate(-212.50601,-216.45806)">
	<g
   id="g3147">
		<g
   id="g3149">
			<g
   id="g3151">
				<path
   d="M 298.51,275.717 V 251.28 h 9.075 c 4.343,0 7.26,1.685 7.26,6.352 0,2.204 -0.714,3.986 -2.69,4.991 v 0.065 c 3.5,0.453 4.991,2.819 4.991,6.223 0,5.12 -4.375,6.806 -8.848,6.806 h -9.788 z m 6.352,-14.843 h 0.713 c 1.686,0 3.436,-0.292 3.436,-2.366 0,-2.235 -1.978,-2.365 -3.695,-2.365 h -0.453 v 4.731 z m 0,9.982 h 0.81 c 1.88,0 5.057,0.097 5.057,-2.593 0,-2.949 -3.144,-2.657 -5.218,-2.657 h -0.648 v 5.25 z"
   id="path3153"
   inkscape:connector-curvature="0"
   style="fill:#87b918" />
				<path
   d="m 347.549,263.045 c 0,7.907 -5.672,13.482 -13.515,13.482 -7.843,0 -13.515,-5.575 -13.515,-13.482 0,-7.39 6.481,-12.575 13.515,-12.575 7.034,0 13.515,5.186 13.515,12.575 z m -20.418,0.033 c 0,4.213 3.111,7.292 6.903,7.292 3.792,0 6.903,-3.079 6.903,-7.292 0,-3.371 -3.111,-6.449 -6.903,-6.449 -3.792,0 -6.903,3.078 -6.903,6.449 z"
   id="path3155"
   inkscape:connector-curvature="0"
   style="fill:#87b918" />
				<path
   d="m 357.373,271.471 -1.686,4.246 h -6.741 l 9.399,-24.437 h 6.936 l 9.204,24.437 h -6.773 l -1.588,-4.246 h -8.751 z m 4.44,-12.639 h -0.065 l -2.625,7.778 h 5.283 l -2.593,-7.778 z"
   id="path3157"
   inkscape:connector-curvature="0"
   style="fill:#87b918" />
			</g>
		</g>
	</g>
</g>
<g
   id="g3159"
   transform="translate(-212.50601,-216.45806)">
	<g
   id="g3161">
		<path
   d="m 298.541,288.708 h 1.474 c 1.629,0 2.996,0.595 2.996,2.425 0,0.726 -0.273,1.344 -0.88,1.748 1.069,0.262 1.7,1.224 1.7,2.294 0,1.783 -1.438,2.496 -3.21,2.496 h -2.08 v -8.963 z m 0.999,3.947 h 0.38 c 1.129,0 2.092,-0.13 2.092,-1.521 0,-1.354 -0.855,-1.497 -2.08,-1.497 h -0.392 v 3.018 z m 0,4.09 h 0.998 c 1.117,0 2.294,-0.273 2.294,-1.641 0,-1.391 -1.331,-1.593 -2.425,-1.593 h -0.867 v 3.234 z"
   id="path3163"
   inkscape:connector-curvature="0"
   style="fill:#707173" />
		<path
   d="m 314.538,293.202 c 0,2.58 -2.116,4.624 -4.672,4.624 -2.556,0 -4.671,-2.044 -4.671,-4.624 0,-2.567 2.115,-4.647 4.671,-4.647 2.556,0 4.672,2.079 4.672,4.647 z m -8.345,-0.012 c 0,2.021 1.641,3.709 3.673,3.709 2.032,0 3.673,-1.688 3.673,-3.709 0,-2.032 -1.616,-3.708 -3.673,-3.708 -2.057,0 -3.673,1.676 -3.673,3.708 z"
   id="path3165"
   inkscape:connector-curvature="0"
   style="fill:#707173" />
		<path
   d="m 325.257,293.202 c 0,2.58 -2.116,4.624 -4.672,4.624 -2.556,0 -4.671,-2.044 -4.671,-4.624 0,-2.567 2.115,-4.647 4.671,-4.647 2.556,0 4.672,2.079 4.672,4.647 z m -8.345,-0.012 c 0,2.021 1.641,3.709 3.673,3.709 2.032,0 3.673,-1.688 3.673,-3.709 0,-2.032 -1.616,-3.708 -3.673,-3.708 -2.057,0 -3.673,1.676 -3.673,3.708 z"
   id="path3167"
   inkscape:connector-curvature="0"
   style="fill:#707173" />
		<path
   d="m 329.342,297.671 h -0.998 v -8.035 h -2.163 v -0.928 h 5.349 v 0.928 h -2.188 v 8.035 z"
   id="path3169"
   inkscape:connector-curvature="0"
   style="fill:#707173" />
		<path
   d="m 337.091,290.457 c -0.356,-0.618 -0.785,-0.975 -1.545,-0.975 -0.797,0 -1.486,0.57 -1.486,1.391 0,0.772 0.797,1.129 1.402,1.402 l 0.595,0.262 c 1.165,0.511 2.151,1.094 2.151,2.52 0,1.569 -1.26,2.77 -2.817,2.77 -1.438,0 -2.508,-0.927 -2.793,-2.317 l 0.975,-0.273 c 0.131,0.915 0.832,1.664 1.795,1.664 0.963,0 1.843,-0.737 1.843,-1.747 0,-1.047 -0.82,-1.403 -1.652,-1.783 l -0.547,-0.238 c -1.046,-0.476 -1.949,-1.01 -1.949,-2.294 0,-1.391 1.177,-2.282 2.508,-2.282 0.998,0 1.842,0.512 2.317,1.391 l -0.797,0.509 z"
   id="path3171"
   inkscape:connector-curvature="0"
   style="fill:#707173" />
		<path
   d="m 342.52,297.671 h -0.998 v -8.035 h -2.163 v -0.928 h 5.349 v 0.928 h -2.188 v 8.035 z"
   id="path3173"
   inkscape:connector-curvature="0"
   style="fill:#707173" />
		<path
   d="m 347.438,297.671 h -0.998 v -8.963 h 1.296 c 1.699,0 3.28,0.452 3.28,2.473 0,1.379 -0.867,2.354 -2.246,2.473 l 2.853,4.018 h -1.225 l -2.71,-3.935 h -0.25 v 3.934 z m 0,-4.814 h 0.31 c 1.129,0 2.271,-0.214 2.271,-1.604 0,-1.474 -1.082,-1.616 -2.282,-1.616 h -0.298 v 3.22 z"
   id="path3175"
   inkscape:connector-curvature="0"
   style="fill:#707173" />
		<path
   d="m 354.699,295.127 -1.081,2.544 h -1.094 l 4.137,-9.391 4.029,9.391 h -1.105 l -1.058,-2.544 h -3.828 z m 1.939,-4.516 -1.534,3.59 h 3.031 l -1.497,-3.59 z"
   id="path3177"
   inkscape:connector-curvature="0"
   style="fill:#707173" />
		<path
   d="m 363.136,297.671 h -0.998 v -8.963 h 1.474 c 0.773,0 1.569,0.024 2.224,0.476 0.665,0.464 1.01,1.248 1.01,2.045 0,0.725 -0.297,1.462 -0.855,1.926 -0.606,0.499 -1.379,0.594 -2.128,0.594 h -0.726 v 3.922 z m 0,-4.849 h 0.666 c 1.105,0 2.045,-0.333 2.045,-1.616 0,-1.463 -1.177,-1.569 -2.342,-1.569 h -0.369 v 3.185 z"
   id="path3179"
   inkscape:connector-curvature="0"
   style="fill:#707173" />
		<path
   d="m 369.589,297.671 h -0.998 v -8.963 h 1.474 c 0.773,0 1.569,0.024 2.224,0.476 0.665,0.464 1.01,1.248 1.01,2.045 0,0.725 -0.297,1.462 -0.855,1.926 -0.606,0.499 -1.379,0.594 -2.128,0.594 h -0.726 v 3.922 z m 0,-4.849 h 0.666 c 1.105,0 2.045,-0.333 2.045,-1.616 0,-1.463 -1.177,-1.569 -2.342,-1.569 h -0.369 v 3.185 z"
   id="path3181"
   inkscape:connector-curvature="0"
   style="fill:#707173" />
		<path
   d="m 376.065,297.671 h -0.999 v -8.963 h 0.999 v 8.963 z"
   id="path3183"
   inkscape:connector-curvature="0"
   style="fill:#707173" />
		<path
   d="m 378.655,288.329 6.989,7.322 v -6.942 h 0.998 v 9.367 l -6.989,-7.311 v 6.906 h -0.998 v -9.342 z"
   id="path3185"
   inkscape:connector-curvature="0"
   style="fill:#707173" />
		<path
   d="m 397.314,293.167 c 0.023,1.212 -0.107,2.211 -0.928,3.162 -0.82,0.95 -2.068,1.497 -3.316,1.497 -2.52,0 -4.612,-2.092 -4.612,-4.611 0,-2.568 2.093,-4.66 4.672,-4.66 1.569,0 2.841,0.701 3.792,1.938 l -0.726,0.678 c -0.748,-1.058 -1.759,-1.688 -3.078,-1.688 -2.045,0 -3.661,1.724 -3.661,3.744 0,0.95 0.38,1.854 1.046,2.531 0.654,0.654 1.604,1.142 2.544,1.142 1.557,0 3.197,-1.142 3.197,-2.806 h -2.662 v -0.927 h 3.732 z"
   id="path3187"
   inkscape:connector-curvature="0"
   style="fill:#707173" />
		<path
   d="m 299.54,312.049 h 2.472 v 0.928 h -3.471 v -8.963 h 0.999 v 8.035 z"
   id="path3189"
   inkscape:connector-curvature="0"
   style="fill:#707173" />
		<path
   d="m 304.732,312.977 h -0.999 v -8.963 h 0.999 v 8.963 z"
   id="path3191"
   inkscape:connector-curvature="0"
   style="fill:#707173" />
		<path
   d="m 307.322,303.633 6.989,7.322 v -6.941 h 0.998 v 9.367 l -6.989,-7.311 v 6.906 h -0.998 v -9.343 z"
   id="path3193"
   inkscape:connector-curvature="0"
   style="fill:#707173" />
		<path
   d="m 322.701,304.014 h 1.343 l -4.208,4.172 4.351,4.791 h -1.379 l -3.673,-4.113 -0.249,0.25 v 3.863 h -0.999 v -8.963 h 0.999 v 3.84 l 3.815,-3.84 z"
   id="path3195"
   inkscape:connector-curvature="0"
   style="fill:#707173" />
		<path
   d="m 325.622,304.014 h 4.647 v 0.928 h -3.649 v 2.662 h 3.543 v 0.928 h -3.543 v 3.518 h 3.649 v 0.928 h -4.647 v -8.964 z"
   id="path3197"
   inkscape:connector-curvature="0"
   style="fill:#707173" />
		<path
   d="m 332.443,304.014 h 1.688 c 1.344,0 2.438,0.178 3.495,1.082 1.022,0.879 1.485,2.08 1.485,3.41 0,1.309 -0.475,2.461 -1.462,3.342 -1.069,0.949 -2.14,1.129 -3.542,1.129 h -1.664 v -8.963 z m 1.724,8.035 c 1.094,0 2.009,-0.154 2.829,-0.928 0.737,-0.689 1.117,-1.627 1.117,-2.627 0,-1.021 -0.393,-2.008 -1.165,-2.686 -0.82,-0.725 -1.724,-0.867 -2.781,-0.867 h -0.725 v 7.107 h 0.725 z"
   id="path3199"
   inkscape:connector-curvature="0"
   style="fill:#707173" />
		<path
   d="m 344.397,304.014 h 1.688 c 1.344,0 2.438,0.178 3.495,1.082 1.022,0.879 1.485,2.08 1.485,3.41 0,1.309 -0.475,2.461 -1.462,3.342 -1.069,0.949 -2.14,1.129 -3.542,1.129 h -1.664 v -8.963 z m 1.724,8.035 c 1.094,0 2.009,-0.154 2.829,-0.928 0.737,-0.689 1.117,-1.627 1.117,-2.627 0,-1.021 -0.393,-2.008 -1.165,-2.686 -0.82,-0.725 -1.724,-0.867 -2.781,-0.867 h -0.726 v 7.107 h 0.726 z"
   id="path3201"
   inkscape:connector-curvature="0"
   style="fill:#707173" />
		<path
   d="m 353.916,310.432 -1.081,2.545 h -1.094 l 4.137,-9.391 4.029,9.391 h -1.105 l -1.058,-2.545 h -3.828 z m 1.938,-4.516 -1.534,3.59 h 3.031 l -1.497,-3.59 z"
   id="path3203"
   inkscape:connector-curvature="0"
   style="fill:#707173" />
		<path
   d="m 363.375,312.977 h -0.998 v -8.035 h -2.163 v -0.928 h 5.349 v 0.928 h -2.188 v 8.035 z"
   id="path3205"
   inkscape:connector-curvature="0"
   style="fill:#707173" />
		<path
   d="m 368.044,310.432 -1.081,2.545 h -1.094 l 4.137,-9.391 4.029,9.391 h -1.105 l -1.058,-2.545 h -3.828 z m 1.937,-4.516 -1.533,3.59 h 3.031 l -1.498,-3.59 z"
   id="path3207"
   inkscape:connector-curvature="0"
   style="fill:#707173" />
	</g>
</g>
<g
   id="g3209"
   transform="translate(-212.50601,-216.45806)">
	<g
   id="g3211">
		<path
   d="m 286.065,216.636 c -3.409,-0.821 -6.835,1.277 -7.656,4.685 -0.113,0.478 -0.166,0.957 -0.17,1.429 -0.491,0.425 -2.177,1.793 -4.116,2.395 -1.767,0.548 -3.729,0.45 -4.554,0.375 -0.855,-1.222 -2.139,-2.149 -3.701,-2.526 -2.507,-0.603 -5.02,0.377 -6.503,2.289 -2.178,-0.968 -4.479,-1.712 -6.874,-2.198 0.175,-0.288 0.313,-0.608 0.502,-0.96 0.428,-0.802 1.242,-2.33 1.046,-3.243 -0.104,-0.481 -0.514,-0.723 -0.962,-0.843 -0.871,-0.226 -1.67,0.007 -2.542,-0.007 -0.734,-0.01 -1.404,-0.393 -2.131,-0.46 -1.479,-0.131 -2.812,-0.417 -4.311,-0.167 -0.54,0.089 -5.828,0.646 -7.067,0.812 -1.561,0.209 -3.141,0.521 -4.614,1.073 -1.769,0.667 -3.054,2.01 -4.34,3.326 -2.263,2.316 -4.536,5.532 -7.001,9.234 -0.594,0.89 -1.582,2.536 -2.874,4.719 -2.99,4.429 -4.94,9.988 -5.513,15.711 -0.005,0.051 -0.009,0.104 -0.015,0.153 -0.042,0.45 -0.076,0.897 -0.102,1.347 -0.009,0.132 -0.017,0.266 -0.022,0.399 -0.023,0.52 -0.039,1.041 -0.039,1.56 0,18.401 14.918,33.321 33.322,33.321 18.403,0 33.32,-14.92 33.32,-33.321 0,-2 -0.177,-3.958 -0.515,-5.861 3.22,0.487 6.334,-1.561 7.108,-4.787 0.652,-2.715 -0.549,-5.438 -2.787,-6.849 -0.158,-0.52 -0.536,-2.18 0.086,-4.771 0.661,-2.736 1.852,-4.053 2.16,-4.356 2.613,-0.257 4.898,-2.128 5.546,-4.826 0.823,-3.407 -1.274,-6.833 -4.681,-7.653 z m -12.849,55.359 c 0.896,-3.271 1.563,-8.182 0.206,-13.063 -2.136,-7.69 -8.62,-14.148 -18.897,-15.915 l 3.633,4.266 0.781,3.603 c 8.623,4.56 9.969,14.812 4.652,22.785 -3.842,5.765 -12.328,7.894 -20.381,6.97 -11.654,-1.336 -20.047,-9.54 -23.034,-19.752 -0.678,-2.125 -1.076,-4.379 -1.155,-6.72 -0.024,-0.451 -0.04,-0.906 -0.044,-1.359 -0.002,-0.162 0.02,-0.339 0.056,-0.524 0.273,-6.7 3.176,-12.686 7.662,-16.861 1.205,-1.206 2.583,-2.229 4.129,-2.953 0.826,-0.388 2.507,0.099 3.315,0.002 0.757,-0.091 1.379,-0.639 2.141,-0.705 1.815,-0.154 3.968,2.363 7.307,3.872 0.886,0.428 2.992,0.802 3.999,0.685 0.719,-0.085 2.327,-0.025 2.619,-0.87 -0.701,-0.428 -1.516,-0.599 -2.26,-0.933 0.567,-0.631 1.049,-1.273 1.263,-1.849 0.2,-0.548 0.557,-1.681 0.199,-2.824 -0.183,1.397 -0.828,3.102 -2.424,4.155 -0.402,-0.244 -0.796,-0.514 -1.178,-0.781 -1.351,-0.944 -2.586,-2.04 -3.812,-3.136 -0.9,-0.806 -1.539,-1.86 -2.441,-2.664 -0.242,-0.213 -1.466,-1.317 -0.599,-1.495 0.556,-0.117 1.141,0.353 1.659,0.484 0.502,0.128 0.947,0.296 1.472,0.227 1.194,-0.158 2.408,-0.229 3.595,-0.397 1.178,-0.168 2.324,-0.68 3.434,-1.052 0.395,-0.131 1.111,-0.471 1.111,-0.471 0.49,1.301 -0.967,3.03 -1.893,3.778 0.855,-0.253 1.94,-1.127 2.514,-1.797 0.498,-0.582 0.983,-1.374 1.229,-2.193 2.271,0.452 4.456,1.146 6.526,2.054 -0.16,0.354 -0.294,0.727 -0.386,1.117 -0.819,3.406 1.278,6.834 4.683,7.653 1.697,0.407 3.397,0.094 4.779,-0.744 0.739,0.253 2.102,0.878 3.656,2.394 0.38,0.371 0.696,0.729 0.977,1.073 0.518,0.773 1.003,1.57 1.452,2.39 0.053,0.132 0.098,0.255 0.13,0.354 -0.205,0.415 -0.372,0.857 -0.485,1.328 -0.729,3.038 0.863,6.089 3.635,7.295 0.412,2.043 0.637,4.154 0.637,6.32 -10e-4,5.936 -1.632,11.494 -4.462,16.253 z m 8.025,-38.957 c -0.467,1.933 -1.689,3.679 -2.109,4.239 -0.932,0.064 -1.824,0.341 -2.623,0.783 -0.771,-0.309 -2.56,-1.115 -3.883,-2.406 -1.314,-1.288 -2.161,-3.048 -2.489,-3.814 0.175,-0.378 0.315,-0.775 0.416,-1.195 0.126,-0.522 0.174,-1.044 0.169,-1.557 0.524,-0.512 1.742,-1.485 3.95,-2.171 2.573,-0.795 4.263,-0.511 4.774,-0.391 0.487,0.673 1.104,1.253 1.829,1.694 0.105,0.579 0.451,2.795 -0.034,4.818 z"
   id="path3213"
   inkscape:connector-curvature="0"
   style="fill:#87b918" />
	</g>
	<path
   d="m 267.003,224.333 c -0.412,-0.224 -0.856,-0.404 -1.334,-0.519 -2.952,-0.712 -5.926,1.106 -6.636,4.061 -0.259,1.076 -0.179,2.152 0.165,3.123 -0.163,-1.621 0.448,-3.396 1.766,-4.781 0.133,0.296 0.379,0.538 0.72,0.619 0.577,0.139 1.16,-0.215 1.3,-0.796 0.101,-0.424 -0.068,-0.847 -0.391,-1.1 1.425,-0.795 3.028,-1.003 4.41,-0.607 z"
   id="path3215"
   inkscape:connector-curvature="0"
   style="fill:#ffffff" />
	<path
   d="m 287.209,217.977 c -0.413,-0.227 -0.859,-0.407 -1.339,-0.522 -2.957,-0.709 -5.93,1.107 -6.64,4.062 -0.259,1.079 -0.179,2.158 0.168,3.13 -0.161,-1.556 0.392,-3.257 1.597,-4.617 0.145,0.198 0.348,0.354 0.604,0.418 0.579,0.139 1.161,-0.218 1.297,-0.796 0.088,-0.364 -0.031,-0.713 -0.265,-0.969 1.47,-0.874 3.141,-1.122 4.578,-0.706 z"
   id="path3217"
   inkscape:connector-curvature="0"
   style="fill:#ffffff" />
	<path
   d="m 282.208,238.781 c -0.417,-0.228 -0.863,-0.409 -1.346,-0.524 -2.956,-0.71 -5.927,1.107 -6.637,4.062 -0.26,1.08 -0.179,2.159 0.168,3.133 -0.175,-1.692 0.494,-3.555 1.93,-4.963 0.137,0.278 0.376,0.501 0.698,0.578 0.582,0.142 1.164,-0.219 1.3,-0.793 0.094,-0.381 -0.042,-0.75 -0.301,-1.007 1.37,-0.693 2.877,-0.866 4.188,-0.486 z"
   id="path3219"
   inkscape:connector-curvature="0"
   style="fill:#ffffff" />
</g>
<path
   d="m 36.05399,33.721944 h -9.094 c -0.475,0 -0.86,-0.385 -0.86,-0.86 0,-0.478 0.386,-0.862 0.86,-0.862 h 9.094 c 0.477,0 0.861,0.385 0.861,0.862 0,0.475 -0.385,0.86 -0.861,0.86 z"
   id="path3221"
   inkscape:connector-curvature="0"
   style="fill:#707173" />
<path
   d="m 40.49599,37.686944 h -13.536 c -0.475,0 -0.86,-0.387 -0.86,-0.862 0,-0.477 0.386,-0.863 0.86,-0.863 h 13.536 c 0.476,0 0.861,0.387 0.861,0.863 0,0.475 -0.385,0.862 -0.861,0.862 z"
   id="path3223"
   inkscape:connector-curvature="0"
   style="fill:#707173" />
<path
   d="m 40.49599,41.651944 h -13.536 c -0.475,0 -0.86,-0.389 -0.86,-0.863 0,-0.476 0.386,-0.863 0.86,-0.863 h 13.536 c 0.476,0 0.861,0.388 0.861,0.863 0,0.474 -0.385,0.863 -0.861,0.863 z"
   id="path3225"
   inkscape:connector-curvature="0"
   style="fill:#707173" />
<path
   d="m 37.04199,3.6219436 c -0.528,-0.076 -0.76,-0.121 -1.239,-0.153 -0.24,-0.02 -0.69,-0.161 -0.667,-0.03 0.219,1.18 -0.416,1.64 -0.502,1.652 -0.098,0.012 -0.007,-1.529 -0.115,-1.506 -0.535,0.117 -1.184,0.358 -1.639,0.541 -0.286,0.088 -0.568,0.188 -0.852,0.275 l -1.593,0.563 c -0.058,0.023 -0.093,0.088 -0.071,0.15 0.019,0.059 0.082,0.093 0.145,0.073 l 1.616,-0.478 c 0.16,-0.049 0.323,-0.089 0.481,-0.13 0.757,0.537 1.508,0.794 2.033,0.729 0.811,-0.101 1.124,-0.449 1.256,-1.07 0.125,-0.27 0.78,-0.173 1.16,-0.382 l 0.033,-0.019 c 0.032,-0.019 0.056,-0.052 0.058,-0.092 0.006,-0.061 -0.042,-0.113 -0.104,-0.123 z"
   id="path3227"
   inkscape:connector-curvature="0"
   style="fill:#ffffff" />
<g
   id="g3229"
   transform="translate(-212.50601,-216.45806)">
	<path
   d="m 258.112,274.108 h -23.756 c -0.477,0 -0.862,-0.387 -0.862,-0.864 v -32.347 c 0,-0.477 0.386,-0.861 0.862,-0.861 h 16.314 c 0.202,0 0.397,0.071 0.552,0.199 l 7.441,6.203 c 0.197,0.164 0.311,0.404 0.311,0.661 v 26.145 c 0.001,0.477 -0.386,0.864 -0.862,0.864 z m -22.894,-1.726 h 22.033 v -24.88 l -6.892,-5.743 h -15.142 v 30.623 z"
   id="path3231"
   inkscape:connector-curvature="0"
   style="fill:#707173" />
</g>
<path
   d="m 40.48299,45.770944 c -0.391,-0.217 -2.278,0.631 -3.201,1.342 -2.033,1.573 -4.95,2.139 -8.094,2.139 -6.855,0 -10.141,-2.392 -10.692,-7.176 -0.251,-2.18 0.706,-5.116 2.504,-6.073 v -6.816 c -5.284,2.138 -8.04,7.605 -8.08,11.798 -0.056,5.517 2.851,11.326 13.124,11.406 6.384,0.048 11.89,-1.45 14.09,-4.653 0.461,-0.675 0.74,-1.752 0.349,-1.967 z"
   id="path3233"
   inkscape:connector-curvature="0"
   style="fill:#87b918" />
</svg>