<?xml version="1.0" encoding="UTF-8" standalone="no"?>
<!-- Generator: Adobe Illustrator 15.0.0, SVG Export Plug-In . SVG Version: 6.00 Build 0)  -->

<svg
   xmlns:dc="http://purl.org/dc/elements/1.1/"
   xmlns:cc="http://creativecommons.org/ns#"
   xmlns:rdf="http://www.w3.org/1999/02/22-rdf-syntax-ns#"
   xmlns:svg="http://www.w3.org/2000/svg"
   xmlns="http://www.w3.org/2000/svg"
   xmlns:sodipodi="http://sodipodi.sourceforge.net/DTD/sodipodi-0.dtd"
   xmlns:inkscape="http://www.inkscape.org/namespaces/inkscape"
   version="1.1"
   id="Ebene_1"
   x="0px"
   y="0px"
   width="173.69313"
   height="105.33"
   viewBox="0 0 173.69312 105.33"
   enable-background="new 0 0 595.28 841.89"
   xml:space="preserve"
   inkscape:version="0.48.1 r9760"
   sodipodi:docname="aksw_logo.svg"><metadata
   id="metadata3255"><rdf:RDF><cc:Work
       rdf:about=""><dc:format>image/svg+xml</dc:format><dc:type
         rdf:resource="http://purl.org/dc/dcmitype/StillImage" /></cc:Work></rdf:RDF></metadata><defs
   id="defs3253" /><sodipodi:namedview
   pagecolor="#ffffff"
   bordercolor="#666666"
   borderopacity="1"
   objecttolerance="10"
   gridtolerance="10"
   guidetolerance="10"
   inkscape:pageopacity="0"
   inkscape:pageshadow="2"
   inkscape:window-width="1920"
   inkscape:window-height="1030"
   id="namedview3251"
   showgrid="false"
   fit-margin-top="0"
   fit-margin-left="0"
   fit-margin-right="0"
   fit-margin-bottom="0"
   inkscape:zoom="1.0045252"
   inkscape:cx="127.43537"
   inkscape:cy="-152.4665"
   inkscape:window-x="0"
   inkscape:window-y="25"
   inkscape:window-maximized="1"
   inkscape:current-layer="Ebene_1" />
<g
   id="g3223"
   transform="translate(-211.31213,-216.652)">
	<path
   d="m 382.819,248.095 c -0.271,-1.35 -1.623,-2.441 -2.982,-2.441 -2.926,0 -5.852,0 -8.779,0 0.393,0.584 0.686,1.232 0.826,1.929 2.998,14.971 2.998,30.148 -0.001,45.115 -0.141,0.695 -0.433,1.342 -0.823,1.926 2.926,0 5.852,0 8.777,0 1.359,0 2.711,-1.09 2.982,-2.441 2.915,-14.552 2.915,-29.537 0,-44.088 z"
   id="path3225"
   inkscape:connector-curvature="0"
   style="fill:#89ba17" />
</g>
<path
   d="m 157.57787,31.442909 c -0.271,-1.35 -1.625,-2.441 -2.984,-2.441 -2.926,0 -5.852,0 -8.777,0 0.392,0.584 0.686,1.232 0.826,1.929 2.998,14.967998 2.998,30.145998 -0.002,45.116998 -0.14,0.695 -0.433,1.342 -0.824,1.924 2.926,0 5.852,0 8.777,0 1.36,0 2.713,-1.09 2.983,-2.441 2.916,-14.552 2.915,-29.537 10e-4,-44.087998 z"
   id="path3227"
   inkscape:connector-curvature="0"
   style="fill:#ec7404" />
<g
   id="g3229"
   transform="translate(-211.31213,-216.652)">
	<path
   d="m 354.962,248.095 c -0.271,-1.35 -1.624,-2.441 -2.985,-2.441 -2.928,0 -5.854,0 -8.78,0 0.392,0.584 0.686,1.232 0.827,1.929 2.998,14.968 2.998,30.146 -0.002,45.119 -0.14,0.693 -0.434,1.34 -0.824,1.922 2.926,0 5.854,0 8.779,0 1.36,0 2.713,-1.09 2.985,-2.441 2.915,-14.552 2.915,-29.537 0,-44.088 z"
   id="path3231"
   inkscape:connector-curvature="0"
   style="fill:#c5007b" />
</g>
<path
   d="m 143.19687,105.32995 -26.796,-27.359043 c 3.448,0 6.898,0 10.334,0 1.358,0 2.71,-1.09 2.983,-2.441 2.914,-14.55 2.914,-29.536 0,-44.085998 -0.273,-1.35 -1.625,-2.441 -2.983,-2.441 -40.208,0 -81.359,0 -121.5670001,0 -1.358,0 -2.71,1.092 -2.982,2.441 -2.91499997,14.550998 -2.91399997,29.535998 0,44.085998 0.271,1.354 1.625,2.441 2.982,2.441 28.7380001,0 57.9550001,0 86.9680001,0 l 51.061,27.359043 z"
   id="path3233"
   inkscape:connector-curvature="0"
   style="fill:#87888a" />
<g
   id="g3235"
   transform="translate(-211.31213,-216.652)">
	<g
   id="g3237">
		<g
   id="g3239">
			<path
   d="m 244.367,282.435 -1.704,-5.93 h -8.589 l -1.721,5.93 h -5.334 l 8.095,-25.016 h 6.458 l 8.129,25.016 h -5.334 z m -2.93,-10.362 -2.571,-9.082 c 0,0 -0.246,-1.132 -0.47,-2.062 -0.173,0.931 -0.454,2.062 -0.454,2.062 l -2.589,9.082 h 6.084 z"
   id="path3241"
   inkscape:connector-curvature="0"
   style="fill:#ffffff" />
			<path
   d="m 272.206,282.435 h -5.998 l -5.738,-10.054 -0.389,0.753 v 9.301 h -5.282 v -24.914 h 5.282 v 10.516 l 0.912,-1.503 5.283,-9.013 h 5.861 l -7.751,11.533 7.82,13.381 z"
   id="path3243"
   inkscape:connector-curvature="0"
   style="fill:#ffffff" />
			<path
   d="m 321.896,282.435 h -5.999 c 0,0 -3.834,-16.081 -3.902,-16.479 -0.068,-0.398 -0.128,-0.764 -0.179,-1.1 -0.051,-0.334 -0.088,-0.604 -0.11,-0.809 -0.023,0.204 -0.06,0.475 -0.111,0.809 -0.051,0.336 -0.11,0.699 -0.179,1.091 -0.069,0.392 -3.852,16.487 -3.852,16.487 h -6.016 L 295.55,257.52 h 5.197 c 0,0 3.602,17.865 3.681,18.319 0.08,0.454 0.153,0.878 0.222,1.27 0.069,0.392 0.119,0.713 0.153,0.963 0.034,-0.25 0.083,-0.568 0.146,-0.954 0.062,-0.387 0.128,-0.799 0.195,-1.236 0.068,-0.437 4.261,-18.361 4.261,-18.361 h 4.635 c 0,0 4.195,17.925 4.269,18.361 0.074,0.438 0.143,0.85 0.205,1.236 0.062,0.386 0.11,0.704 0.145,0.954 0.034,-0.25 0.082,-0.571 0.146,-0.963 0.062,-0.392 0.133,-0.815 0.213,-1.27 0.079,-0.454 3.681,-18.319 3.681,-18.319 h 5.197 l -6,24.915 z"
   id="path3245"
   inkscape:connector-curvature="0"
   style="fill:#ffffff" />
		</g>
	</g>
	<g
   id="g3247">
		<path
   d="m 283.314,282.731 c -4.285,-0.015 -6.83,-1.524 -6.83,-1.524 v -4.712 c 0,0 2.632,1.974 6.085,2.017 2.124,0.026 3.806,-0.659 3.976,-2.42 0.212,-2.195 -1.293,-3.136 -3.081,-4.097 l -2.348,-1.244 c -2.198,-1.174 -4.211,-3.207 -4.211,-6.729 0,-5.441 4.695,-6.9 8.123,-6.9 3.652,0 6.538,1.737 6.538,1.737 l -1.655,3.823 c 0,0 -2.156,-1.398 -4.652,-1.398 -1.863,0 -3.354,0.64 -3.354,2.632 0,1.743 1.335,2.587 2.862,3.405 l 2.236,1.174 c 2.385,1.244 4.733,3.062 4.733,6.945 0.001,5.43 -4.695,7.304 -8.422,7.291 z"
   id="path3249"
   inkscape:connector-curvature="0"
   style="fill:#ffffff" />
	</g>
</g>
</svg>